<svg xmlns="http://www.w3.org/2000/svg" viewBox="0 0 130 47" width="130" height="47">
	<style>
		tspan { white-space:pre }
		.shp0 { fill: #6d4f8a } 
	</style>
	<g id="Folder 7">
		<path id="PARTNERS " fill="#ffffff" d="M5.4 13.48L5.4 6.83L8.95 6.83C11.7 6.83 12.86 8.08 12.86 10.18C12.86 12.21 11.7 13.48 8.95 13.48ZM15.32 10.18C15.32 7.22 13.29 4.88 8.95 4.88L2.99 4.88L2.99 23L5.4 23L5.4 15.43L8.95 15.43C13.53 15.43 15.32 12.94 15.32 10.18ZM30.7 23L33.24 23L26.6 4.98L23.82 4.98L17.15 23L19.69 23L21.17 18.97L29.22 18.97ZM28.53 17.05L21.86 17.05L25.19 7.89ZM46.02 10.21C46.02 12.24 44.83 13.69 42.1 13.69L38.56 13.69L38.56 6.83L42.1 6.83C44.85 6.83 46.02 8.15 46.02 10.21ZM36.15 4.88L36.15 23L38.56 23L38.56 15.59L41.47 15.59L45.86 23L48.74 23L44.11 15.41C47.21 14.73 48.5 12.52 48.5 10.21C48.5 7.24 46.44 4.88 42.1 4.88ZM51.1 6.8L56.15 6.8L56.15 23L58.56 23L58.56 6.8L63.59 6.8L63.59 4.88L51.1 4.88ZM78.64 4.85L78.64 19.26L68.96 4.85L66.55 4.85L66.55 23L68.96 23L68.96 8.57L78.64 23L81.05 23L81.05 4.85ZM95.07 4.85L85.15 4.85L85.15 23L95.07 23L95.07 21.05L87.56 21.05L87.56 14.81L94.28 14.81L94.28 12.86L87.56 12.86L87.56 6.8L95.07 6.8ZM108.59 10.21C108.59 12.24 107.4 13.69 104.68 13.69L101.13 13.69L101.13 6.83L104.68 6.83C107.43 6.83 108.59 8.15 108.59 10.21ZM98.72 4.88L98.72 23L101.13 23L101.13 15.59L104.04 15.59L108.43 23L111.32 23L106.69 15.41C109.78 14.73 111.08 12.52 111.08 10.21C111.08 7.24 109.02 4.88 104.68 4.88ZM126.8 18.06C126.8 11.35 116.85 14.26 116.85 9.58C116.85 7.63 118.41 6.62 120.39 6.67C122.64 6.7 123.81 8.08 123.97 9.3L126.61 9.3C126.32 6.54 124.02 4.64 120.5 4.64C116.85 4.64 114.39 6.67 114.39 9.66C114.39 16.4 124.36 13.28 124.36 18.16C124.36 19.88 122.99 21.18 120.66 21.18C118.09 21.18 117.01 19.67 116.85 18.16L114.28 18.16C114.33 21.15 116.95 23.18 120.66 23.18C124.65 23.18 126.8 20.63 126.8 18.06Z" />
		<path id="NEED GROUP " fill="#c8cad2" d="M24.65 30.47L24.65 39.8L18.42 30.47L16.35 30.47L16.35 43L18.42 43L18.42 33.66L24.65 43L26.73 43L26.73 30.47ZM36.43 30.47L29.45 30.47L29.45 43L36.43 43L36.43 41.33L31.52 41.33L31.52 37.49L35.88 37.49L35.88 35.82L31.52 35.82L31.52 32.15L36.43 32.15ZM45.94 30.47L38.97 30.47L38.97 43L45.94 43L45.94 41.33L41.04 41.33L41.04 37.49L45.4 37.49L45.4 35.82L41.04 35.82L41.04 32.15L45.94 32.15ZM52.61 30.49L48.49 30.49L48.49 43L52.61 43C56.66 43 59.31 40.64 59.31 36.79C59.31 32.92 56.66 30.49 52.61 30.49ZM50.56 41.33L50.56 32.16L52.61 32.16C55.59 32.16 57.19 33.93 57.19 36.79C57.19 39.63 55.59 41.33 52.61 41.33ZM71.85 30.33C68.29 30.33 65.4 32.97 65.4 36.72C65.4 40.48 68.29 43.11 71.85 43.11C75.24 43.11 77.72 40.64 78.1 37.74L78.1 36.14L71.14 36.14L71.14 37.78L75.88 37.78C75.57 39.89 74.14 41.25 71.85 41.25C69.34 41.25 67.52 39.47 67.52 36.72C67.52 33.96 69.34 32.2 71.85 32.2C73.36 32.2 74.55 32.83 75.23 34.09L77.72 34.09C76.75 31.64 74.48 30.33 71.85 30.33ZM86.83 34.23C86.83 35.48 86.11 36.36 84.49 36.36L82.2 36.36L82.2 32.16L84.49 32.16C86.11 32.16 86.83 32.97 86.83 34.23ZM80.13 30.49L80.13 43L82.2 43L82.2 38L83.78 38L86.69 43L89.16 43L86.03 37.82C88.16 37.29 88.96 35.71 88.96 34.23C88.96 32.2 87.49 30.49 84.49 30.49ZM103.82 36.72C103.82 32.97 100.97 30.33 97.37 30.33C93.81 30.33 90.92 32.97 90.92 36.72C90.92 40.48 93.81 43.13 97.37 43.13C100.97 43.13 103.82 40.48 103.82 36.72ZM93.05 36.72C93.05 33.89 94.86 32.13 97.37 32.13C99.88 32.13 101.69 33.89 101.69 36.72C101.69 39.54 99.88 41.34 97.37 41.34C94.86 41.34 93.05 39.54 93.05 36.72ZM105.83 38.43C105.83 41.61 108.09 43.13 110.74 43.13C113.37 43.13 115.7 41.61 115.7 38.43L115.7 30.49L113.63 30.49L113.63 38.46C113.63 40.41 112.52 41.33 110.76 41.33C109.01 41.33 107.91 40.41 107.91 38.46L107.91 30.49L105.83 30.49ZM120.46 36.25L120.46 32.16L122.75 32.16C124.36 32.16 125.09 32.92 125.09 34.22C125.09 35.48 124.36 36.25 122.75 36.25ZM127.22 34.22C127.22 32.18 125.74 30.49 122.75 30.49L118.39 30.49L118.39 43L120.46 43L120.46 37.92L122.75 37.92C126.03 37.92 127.22 36 127.22 34.22Z" />
		<path id="U " fill="#6d4f8a" d="M3.31 39.92C3.31 42.73 5.62 44.11 8.43 44.11C11.23 44.11 13.65 42.73 13.65 39.92L13.65 33.34L11.07 33.34L11.07 39.94C11.07 41.4 10.11 42.17 8.46 42.17C6.83 42.17 5.88 41.4 5.88 39.94L5.88 33.34L3.31 33.34Z" />
		<path id="Shape 2" class="shp0" d="M4.5 30C3.67 30 3 29.33 3 28.5C3 27.67 3.67 27 4.5 27C5.33 27 6 27.67 6 28.5C6 29.33 5.33 30 4.5 30Z" />
		<path id="Shape 2 copy" class="shp0" d="M12.5 30C11.67 30 11 29.33 11 28.5C11 27.67 11.67 27 12.5 27C13.33 27 14 27.67 14 28.5C14 29.33 13.33 30 12.5 30Z" />
	</g>
</svg>